<svg width="164" height="40" xmlns="http://www.w3.org/2000/svg">

 <g>
  <title>background</title>
  <rect fill="none" id="canvas_background" height="42" width="166" y="-1" x="-1"/>
 </g>
 <g>
  <title>Layer 1</title>
  <path id="svg_2" fill="#CCCCCC" d="m122,-1c-4,0 -4,4 -4,4l0,4l12,0c-2,-4 -6,-8 -8,-8z"/>
  <path id="svg_4" fill="#E6E6E6" d="m146,23c-4,0 -14,-14 -16,-16s-4,-4 -6,-4c0,0 -2,0 -4,2s-6,4 -10,4c-2.254,0 -1.057,0 -4,0c-2,0 -4,0 -4,2l0,4c0,2 -2,5.994 -2,12l0,6l58,0l0,-8c-10,-2 -12,-2 -12,-2z"/>
  <path id="svg_6" fill="#1677ff" d="m130,6.75c-2,-2 -4,-4 -6,-4c0,0 -2,0 -4,2c0,0 4,4 6,6c1.414,1.414 0,2.001 2,4c2,2 4,0 6,2c4,4.001 6,8 12,8l0,-2c-4,0 -14,-14 -16,-16z"/>
  <path id="svg_8" fill-rule="evenodd" clip-rule="evenodd" fill="#666666" d="m134,24.75c0,-4 -4,-6 -4,-6s0.189,4 -2,4c-1.653,0 -4.829,-1.182 -8.408,-2.803c3.274,-4.171 7.962,-8.75 10.408,-11.197c0,0 0,-2 -2,-4s-4,-2 -4,-2c-5.233,5.233 -9.906,9.357 -13.709,12.573c-4.631,-2.455 -8.291,-4.573 -8.291,-4.573l0,2c0,0 2.592,1.885 6.157,4.36c-5.097,4.237 -8.157,6.573 -8.157,7.64c0,1.931 0,8 0,8l16,0c0,0 0,-1.823 0,-6c0,-0.95 0.49,-2.164 1.294,-3.522c4.733,3.022 9.126,5.522 10.706,5.522c2,0 6,0 6,-4zm24,0c0,0 -2,4.001 -8,4.001c-2,0 -2,-2.001 -2,-4.001c0,0 0,-2 -2,-2s-4,2 -6,4s-8,6 -8,6l30,0l0,-3.999c0,-4.001 -4,-4.001 -4,-4.001z"/>
  <path id="svg_10" fill="#CCCCCC" d="m162,29c-2,0 -4.6,4 -30,4c-10,0 -28,-2 -30,-2s-2,0 -2,2c0,4 0,6 7,6c6.729,0 20.547,0 25,0c6,0 32,0 32,-8c0,0 0,-2 -2,-2z"/>
  <text stroke="null" transform="matrix(1.0454509258270264,0,0,1.0932940244674683,0.02840682864189148,-0.22848653041853595) " xml:space="preserve" text-anchor="start" font-family="Arvo, sans-serif" font-size="24" id="svg_26" y="29.039376" x="22.331601" stroke-opacity="null" stroke-width="15" fill="#1677ff">Shoes</text>
  <text style="cursor: move;" stroke="null" transform="matrix(1.0454509258270264,0,0,1.0932940244674683,0.02840682864189148,-0.22848653041853595) " xml:space="preserve" text-anchor="start" font-family="Arvo, sans-serif" font-size="24" id="svg_27" y="28.582043" x="-0.625" stroke-opacity="null" stroke-width="0" fill="#333333">E-</text>
 </g>
</svg>